<svg width="102" height="121" viewBox="0 0 102 121" fill="none" xmlns="http://www.w3.org/2000/svg">
<path d="M85.5 43.5C85.5 57.6859 71.5681 72.5 50 72.5C28.4319 72.5 14.5 57.6859 14.5 43.5C14.5 29.3141 28.4319 14.5 50 14.5C71.5681 14.5 85.5 29.3141 85.5 43.5Z" stroke="#FAB12A" stroke-width="29"/>
<line x1="3.5" y1="47" x2="3.5" y2="105" stroke="#FAB12A" stroke-width="7"/>
<line x1="6.57139" y1="104.297" x2="14.5714" y2="65.2967" stroke="#FAB12A" stroke-width="7"/>
<g filter="url(#filter0_d_2_10)">
<path d="M13.157 97.16C13.157 95.5547 13.4557 94.1453 14.053 92.932C14.669 91.7187 15.4997 90.7853 16.545 90.132C17.5904 89.4787 18.757 89.152 20.045 89.152C21.1464 89.152 22.1077 89.376 22.929 89.824C23.769 90.272 24.413 90.86 24.861 91.588V89.376H29.649V105H24.861V102.788C24.3944 103.516 23.741 104.104 22.901 104.552C22.0797 105 21.1184 105.224 20.017 105.224C18.7477 105.224 17.5904 104.897 16.545 104.244C15.4997 103.572 14.669 102.629 14.053 101.416C13.4557 100.184 13.157 98.7653 13.157 97.16ZM24.861 97.188C24.861 95.9933 24.525 95.0507 23.853 94.36C23.1997 93.6693 22.397 93.324 21.445 93.324C20.493 93.324 19.681 93.6693 19.009 94.36C18.3557 95.032 18.029 95.9653 18.029 97.16C18.029 98.3547 18.3557 99.3067 19.009 100.016C19.681 100.707 20.493 101.052 21.445 101.052C22.397 101.052 23.1997 100.707 23.853 100.016C24.525 99.3253 24.861 98.3827 24.861 97.188ZM41.821 100.94V105H39.385C37.649 105 36.2956 104.58 35.325 103.74C34.3543 102.881 33.869 101.491 33.869 99.568V93.352H31.965V89.376H33.869V85.568H38.657V89.376H41.793V93.352H38.657V99.624C38.657 100.091 38.769 100.427 38.993 100.632C39.217 100.837 39.5903 100.94 40.113 100.94H41.821ZM59.916 89.376V105H55.128V102.872C54.6426 103.563 53.98 104.123 53.14 104.552C52.3186 104.963 51.404 105.168 50.396 105.168C49.2013 105.168 48.1466 104.907 47.232 104.384C46.3173 103.843 45.608 103.068 45.104 102.06C44.6 101.052 44.348 99.8667 44.348 98.504V89.376H49.108V97.86C49.108 98.9053 49.3786 99.7173 49.92 100.296C50.4613 100.875 51.1893 101.164 52.104 101.164C53.0373 101.164 53.7746 100.875 54.316 100.296C54.8573 99.7173 55.128 98.9053 55.128 97.86V89.376H59.916ZM68.1431 91.588C68.6098 90.86 69.2538 90.272 70.0751 89.824C70.8965 89.376 71.8578 89.152 72.9591 89.152C74.2471 89.152 75.4138 89.4787 76.4591 90.132C77.5045 90.7853 78.3258 91.7187 78.9231 92.932C79.5391 94.1453 79.8471 95.5547 79.8471 97.16C79.8471 98.7653 79.5391 100.184 78.9231 101.416C78.3258 102.629 77.5045 103.572 76.4591 104.244C75.4138 104.897 74.2471 105.224 72.9591 105.224C71.8765 105.224 70.9151 105 70.0751 104.552C69.2538 104.104 68.6098 103.525 68.1431 102.816V112.448H63.3551V89.376H68.1431V91.588ZM74.9751 97.16C74.9751 95.9653 74.6391 95.032 73.9671 94.36C73.3138 93.6693 72.5018 93.324 71.5311 93.324C70.5791 93.324 69.7671 93.6693 69.0951 94.36C68.4418 95.0507 68.1151 95.9933 68.1151 97.188C68.1151 98.3827 68.4418 99.3253 69.0951 100.016C69.7671 100.707 70.5791 101.052 71.5311 101.052C72.4831 101.052 73.2951 100.707 73.9671 100.016C74.6391 99.3067 74.9751 98.3547 74.9751 97.16ZM81.407 97.16C81.407 95.5547 81.7057 94.1453 82.303 92.932C82.919 91.7187 83.7497 90.7853 84.795 90.132C85.8404 89.4787 87.007 89.152 88.295 89.152C89.3964 89.152 90.3577 89.376 91.179 89.824C92.019 90.272 92.663 90.86 93.111 91.588V89.376H97.899V105H93.111V102.788C92.6444 103.516 91.991 104.104 91.151 104.552C90.3297 105 89.3684 105.224 88.267 105.224C86.9977 105.224 85.8404 104.897 84.795 104.244C83.7497 103.572 82.919 102.629 82.303 101.416C81.7057 100.184 81.407 98.7653 81.407 97.16ZM93.111 97.188C93.111 95.9933 92.775 95.0507 92.103 94.36C91.4497 93.6693 90.647 93.324 89.695 93.324C88.743 93.324 87.931 93.6693 87.259 94.36C86.6057 95.032 86.279 95.9653 86.279 97.16C86.279 98.3547 86.6057 99.3067 87.259 100.016C87.931 100.707 88.743 101.052 89.695 101.052C90.647 101.052 91.4497 100.707 92.103 100.016C92.775 99.3253 93.111 98.3827 93.111 97.188Z" fill="#FAB12A"/>
</g>
<path d="M5 80C5 80.5129 5.22376 81.442 5.59287 82.4425C5.89874 82.2381 6.22138 81.9297 6.55556 81.5C8.60596 78.8638 8 75.8272 8 72.5556C8 71.4492 7.63974 71.1204 6.99633 71.0279C6.31498 71.105 5.50868 71 5.61111 71C6.15758 71 6.62429 70.9744 6.99633 71.0279C7.63974 71.1204 8 71.4492 8 72.5556C8 75.8272 8.60596 78.8638 6.55556 81.5C6.22138 81.9297 5.89874 82.2381 5.59287 82.4425C3.72676 83.69 2.48493 81.0678 3.05556 78.5C3.40093 76.9458 3.66365 70.908 6 72.2222C6.73777 72.6372 5 78.5389 5 80Z" fill="#F8F8F8"/>
<path d="M9 68C9 68.7026 9.29026 86.5556 8.77778 86.5556C6.91214 86.5556 5 81.4992 5 80C5 78.5389 6.73777 72.6372 6 72.2222C3.66365 70.908 3.40093 76.9458 3.05556 78.5C2.3914 81.4887 4.18254 84.551 6.55556 81.5C8.60596 78.8638 8 75.8272 8 72.5556C8 70.8095 7.10267 71 5.61111 71C5.43699 71 7.88889 71.3034 7.88889 70.5C7.88889 69.2564 6.51831 69.267 7.5 67.5C8.42854 65.8286 9 63.906 9 62" stroke="#FAB12A" stroke-width="3" stroke-linecap="round"/>
<defs>
<filter id="filter0_d_2_10" x="9.15705" y="85.568" width="92.742" height="34.88" filterUnits="userSpaceOnUse" color-interpolation-filters="sRGB">
<feFlood flood-opacity="0" result="BackgroundImageFix"/>
<feColorMatrix in="SourceAlpha" type="matrix" values="0 0 0 0 0 0 0 0 0 0 0 0 0 0 0 0 0 0 127 0" result="hardAlpha"/>
<feOffset dy="4"/>
<feGaussianBlur stdDeviation="2"/>
<feComposite in2="hardAlpha" operator="out"/>
<feColorMatrix type="matrix" values="0 0 0 0 0 0 0 0 0 0 0 0 0 0 0 0 0 0 0.25 0"/>
<feBlend mode="normal" in2="BackgroundImageFix" result="effect1_dropShadow_2_10"/>
<feBlend mode="normal" in="SourceGraphic" in2="effect1_dropShadow_2_10" result="shape"/>
</filter>
</defs>
</svg>
